<svg width="183" height="60" viewBox="0 0 183 60" fill="none" xmlns="http://www.w3.org/2000/svg">
<path d="M0.700284 17.2727H6.55611L12.1946 27.9219H12.4361L18.0746 17.2727H23.9304L14.9112 33.2585V42H9.71946V33.2585L0.700284 17.2727ZM25.4259 42V17.2727H42.0878V21.5831H30.6538V27.4751H41.2306V31.7855H30.6538V37.6896H42.1361V42H25.4259ZM49.1463 42H43.544L52.0802 17.2727H58.8175L67.3416 42H61.7393L55.5454 22.9233H55.3523L49.1463 42ZM48.7962 32.2805H62.0291V36.3615H48.7962V32.2805ZM68.9578 42V17.2727H78.7135C80.5809 17.2727 82.1747 17.6068 83.4948 18.2749C84.8229 18.9349 85.8331 19.8726 86.5253 21.0881C87.2256 22.2955 87.5757 23.7161 87.5757 25.3501C87.5757 26.9922 87.2216 28.4048 86.5132 29.5881C85.8049 30.7633 84.7786 31.6648 83.4344 32.2926C82.0982 32.9205 80.4803 33.2344 78.5807 33.2344H72.0487V29.0327H77.7355C78.7336 29.0327 79.5627 28.8958 80.2227 28.6222C80.8828 28.3485 81.3738 27.938 81.6957 27.3906C82.0258 26.8433 82.1908 26.1631 82.1908 25.3501C82.1908 24.5291 82.0258 23.8369 81.6957 23.2734C81.3738 22.71 80.8787 22.2834 80.2107 21.9936C79.5506 21.6958 78.7175 21.5469 77.7114 21.5469H74.1858V42H68.9578ZM82.3115 30.7472L88.4571 42H82.6858L76.673 30.7472H82.3115ZM89.9103 42V17.2727H99.8109C101.63 17.2727 103.147 17.5424 104.363 18.0817C105.578 18.621 106.492 19.3696 107.103 20.3274C107.715 21.2772 108.021 22.3719 108.021 23.6115C108.021 24.5774 107.828 25.4266 107.442 26.1591C107.055 26.8835 106.524 27.4792 105.848 27.946C105.18 28.4048 104.415 28.7308 103.554 28.924V29.1655C104.496 29.2057 105.377 29.4714 106.198 29.9624C107.027 30.4534 107.699 31.1416 108.214 32.027C108.729 32.9044 108.987 33.9508 108.987 35.1662C108.987 36.4782 108.661 37.6494 108.009 38.6797C107.365 39.7019 106.411 40.5109 105.148 41.1065C103.884 41.7022 102.326 42 100.475 42H89.9103ZM95.1383 37.7259H99.4004C100.857 37.7259 101.92 37.4482 102.588 36.8928C103.256 36.3293 103.59 35.5807 103.59 34.647C103.59 33.9628 103.425 33.3591 103.095 32.8359C102.765 32.3127 102.294 31.9022 101.682 31.6044C101.079 31.3066 100.358 31.1577 99.5211 31.1577H95.1383V37.7259ZM95.1383 27.62H99.014C99.7304 27.62 100.366 27.4953 100.922 27.2457C101.485 26.9882 101.928 26.6259 102.25 26.1591C102.58 25.6922 102.745 25.1328 102.745 24.4808C102.745 23.5874 102.427 22.867 101.791 22.3196C101.163 21.7723 100.27 21.4986 99.1106 21.4986H95.1383V27.62ZM133.752 29.6364C133.752 32.3329 133.241 34.6269 132.218 36.5185C131.204 38.41 129.82 39.8549 128.065 40.853C126.318 41.843 124.354 42.3381 122.173 42.3381C119.976 42.3381 118.004 41.839 116.257 40.8409C114.51 39.8428 113.13 38.398 112.115 36.5064C111.101 34.6148 110.594 32.3248 110.594 29.6364C110.594 26.9399 111.101 24.6458 112.115 22.7543C113.13 20.8627 114.51 19.4219 116.257 18.4318C118.004 17.4337 119.976 16.9347 122.173 16.9347C124.354 16.9347 126.318 17.4337 128.065 18.4318C129.82 19.4219 131.204 20.8627 132.218 22.7543C133.241 24.6458 133.752 26.9399 133.752 29.6364ZM128.451 29.6364C128.451 27.8897 128.19 26.4167 127.667 25.2173C127.151 24.018 126.423 23.1084 125.481 22.4886C124.539 21.8688 123.437 21.5589 122.173 21.5589C120.909 21.5589 119.807 21.8688 118.865 22.4886C117.923 23.1084 117.191 24.018 116.667 25.2173C116.152 26.4167 115.895 27.8897 115.895 29.6364C115.895 31.383 116.152 32.8561 116.667 34.0554C117.191 35.2547 117.923 36.1643 118.865 36.7841C119.807 37.4039 120.909 37.7138 122.173 37.7138C123.437 37.7138 124.539 37.4039 125.481 36.7841C126.423 36.1643 127.151 35.2547 127.667 34.0554C128.19 32.8561 128.451 31.383 128.451 29.6364ZM158.988 29.6364C158.988 32.3329 158.476 34.6269 157.454 36.5185C156.44 38.41 155.055 39.8549 153.301 40.853C151.554 41.843 149.59 42.3381 147.409 42.3381C145.211 42.3381 143.239 41.839 141.493 40.8409C139.746 39.8428 138.365 38.398 137.351 36.5064C136.337 34.6148 135.83 32.3248 135.83 29.6364C135.83 26.9399 136.337 24.6458 137.351 22.7543C138.365 20.8627 139.746 19.4219 141.493 18.4318C143.239 17.4337 145.211 16.9347 147.409 16.9347C149.59 16.9347 151.554 17.4337 153.301 18.4318C155.055 19.4219 156.44 20.8627 157.454 22.7543C158.476 24.6458 158.988 26.9399 158.988 29.6364ZM153.687 29.6364C153.687 27.8897 153.426 26.4167 152.902 25.2173C152.387 24.018 151.659 23.1084 150.717 22.4886C149.775 21.8688 148.672 21.5589 147.409 21.5589C146.145 21.5589 145.042 21.8688 144.1 22.4886C143.159 23.1084 142.426 24.018 141.903 25.2173C141.388 26.4167 141.13 27.8897 141.13 29.6364C141.13 31.383 141.388 32.8561 141.903 34.0554C142.426 35.2547 143.159 36.1643 144.1 36.7841C145.042 37.4039 146.145 37.7138 147.409 37.7138C148.672 37.7138 149.775 37.4039 150.717 36.7841C151.659 36.1643 152.387 35.2547 152.902 34.0554C153.426 32.8561 153.687 31.383 153.687 29.6364ZM161.5 42V17.2727H166.728V28.1754H167.054L175.953 17.2727H182.219L173.043 28.3445L182.328 42H176.073L169.3 31.8338L166.728 34.973V42H161.5Z" fill="white"/>
</svg>
